<?xml version="1.0" encoding="UTF-8"?>
<svg width="22px" height="22px" viewBox="0 0 22 22" version="1.1" xmlns="http://www.w3.org/2000/svg" xmlns:xlink="http://www.w3.org/1999/xlink">
    <title>paypal</title>
    <defs>
        <path d="M17.7780729,5.8864725 C17.6178664,5.70714429 17.4418361,5.54340857 17.2525564,5.39661536 C17.2314289,5.60355107 17.1995882,5.81025536 17.1509111,6.01547464 C17.1301982,6.14543143 17.1094179,6.27632357 17.0783968,6.41851714 C16.2845582,10.4856525 13.5536721,12.6449389 9.18518786,12.6449389 L7.52783143,12.6449389 L6.63611786,18.2635714 C6.56178107,18.7319443 6.15791893,19.076715 5.68372179,19.076715 L4.55775429,19.076715 L4.47865393,19.5785775 C4.46712107,19.6515546 4.46122919,19.7253611 4.46122919,19.7992832 C4.46094,20.5804704 5.09398393,21.2139868 5.87517107,21.2143472 L8.9940375,21.2143472 C9.82878107,21.2213443 10.5447536,20.6203725 10.6825404,19.7970461 L11.3002811,15.9097693 L11.3106375,15.8570904 L11.598795,15.8570904 C15.4870168,15.8570904 17.9156186,13.9350471 18.6237707,10.3001432 C19.0618843,8.77826893 18.7477779,7.13868429 17.7780729,5.8864725 Z" id="path-1"></path>
    </defs>
    <g id="paypal" stroke="none" stroke-width="1" fill="none" fill-rule="evenodd">
        <g id="paypal" transform="translate(1.571429, 0.000000)">
            <path d="M6.63609857,18.2635714 C6.56176179,18.7319154 6.15793821,19.0767088 5.68373143,19.0767088 L1.98882964,19.0767088 C1.17233036,19.0784604 0.509007857,18.4179825 0.507239937,17.6014832 C0.507069643,17.5190079 0.513790714,17.4366579 0.527348571,17.3553107 L3.02469429,1.53495 C3.16668536,0.652223571 3.9273525,0.00238178571 4.82142857,0 L10.8133746,0 C13.2824668,0 15.0641389,0.597972857 16.1094054,1.77695679 C17.118675,2.93974071 17.5063371,4.51736036 17.1509111,6.01548429 C17.1301982,6.14544107 17.1094468,6.27633321 17.0784064,6.41855571 C16.2845679,10.4856911 13.5536721,12.6449486 9.1851975,12.6449486 L7.52783143,12.6449486 L6.63609857,18.2635714 Z" id="Shape" fill="#696CFF"></path>
            <g id="Path">
                <use fill="#696CFF" xlink:href="#path-1"></use>
                <use fill-opacity="0.4" fill="#FFFFFF" xlink:href="#path-1"></use>
            </g>
        </g>
    </g>
</svg>