<?xml version="1.0" encoding="UTF-8"?>
<svg width="22px" height="22px" viewBox="0 0 22 22" version="1.1" xmlns="http://www.w3.org/2000/svg" xmlns:xlink="http://www.w3.org/1999/xlink">
    <title>shopping-bag</title>
    <defs>
        <path d="M14.3,22 L3.3,22 C1.47746033,22 -9.76996262e-16,20.5225397 -9.76996262e-16,18.7 L-9.76996262e-16,7.7 C-9.76996262e-16,6.48497355 0.98497355,5.5 2.2,5.5 L15.4,5.5 C16.6150264,5.5 17.6,6.48497355 17.6,7.7 L17.6,18.7 C17.6,20.5225397 16.1225397,22 14.3,22 Z" id="path-1"></path>
    </defs>
    <g id="shopping-bag" stroke="none" stroke-width="1" fill="none" fill-rule="evenodd">
        <g id="shopping-bag" transform="translate(2.357143, 0.000000)">
            <g id="Path">
                <use fill="#FFAB00" xlink:href="#path-1"></use>
                <use fill-opacity="0.6" fill="#FFFFFF" xlink:href="#path-1"></use>
            </g>
            <path d="M12.1,9.90000018 C11.8082109,9.90016646 11.5283248,9.78432739 11.3219987,9.57800128 C11.1156726,9.37167517 10.9998335,9.09178914 11,8.8 L11,4.4 C11,3.18497355 10.0150264,2.2 8.8,2.2 C7.58497355,2.2 6.6,3.18497355 6.6,4.4 L6.6,8.8 C6.6,9.40751322 6.10751322,9.90000018 5.5,9.90000018 C4.89248678,9.90000018 4.4,9.40751322 4.4,8.8 L4.4,4.4 C4.4,1.9699471 6.3699471,0 8.8,0 C11.2300529,0 13.2000002,1.9699471 13.2000002,4.4 L13.2000002,8.8 C13.2001665,9.09178914 13.0843274,9.37167517 12.8780013,9.57800128 C12.6716752,9.78432739 12.3917891,9.90016646 12.1,9.90000018 L12.1,9.90000018 Z" id="Path" fill="#FFAB00"></path>
        </g>
    </g>
</svg>