<?xml version="1.0" encoding="UTF-8"?>
<svg width="22px" height="22px" viewBox="0 0 22 22" version="1.1" xmlns="http://www.w3.org/2000/svg" xmlns:xlink="http://www.w3.org/1999/xlink">
    <title>wallet</title>
    <defs>
        <path d="M0,2.566663 L0,2.566663 C0,3.916693 1.094401,5.011105 2.444431,5.011116 C2.444431,5.011116 2.444442,5.011116 2.444442,5.011116 L19.555558,5.011116 C20.905588,5.011116 22,6.105528 22,7.455558 L22,17.233337 C22,18.583367 20.905588,19.677779 19.555558,19.677779 L2.444442,19.677779 C1.094412,19.677779 0,18.583367 0,17.233337 L0,2.566663" id="path-1"></path>
        <path d="M2.444453,5.011094 L17.111094,5.011094 L17.111094,2.322188 C17.111094,1.107183 16.126165,0.122188 14.911094,0.122188 L2.2,0.122188 C0.984995,0.122188 0,1.107183 0,2.322188 L0,2.566641 C0,3.916671 1.094423,5.011094 2.444453,5.011094 Z" id="path-2"></path>
    </defs>
    <g id="wallet" stroke="none" stroke-width="1" fill="none" fill-rule="evenodd">
        <g id="wallet" transform="translate(0.000000, 1.571429)">
            <g id="Path">
                <use fill="#03C3EC" xlink:href="#path-1"></use>
                <use fill-opacity="0.6" fill="#FFFFFF" xlink:href="#path-1"></use>
            </g>
            <g id="Path">
                <use fill="#03C3EC" xlink:href="#path-2"></use>
                <use fill-opacity="0.4" fill="#FFFFFF" xlink:href="#path-2"></use>
            </g>
            <path d="M22,15.40011 L18.830262,15.40011 C17.223481,15.42926 15.817329,14.32552 15.463976,12.7578 C15.103682,10.968232 16.262345,9.225414 18.051913,8.865131 C18.26528,8.822165 18.482354,8.800396 18.7,8.80011 L22,8.80011 L22,15.40011 Z" id="Path" fill="#03C3EC"></path>
        </g>
    </g>
</svg>